<svg width="99" height="40" viewBox="0 0 99 40" fill="none" xmlns="http://www.w3.org/2000/svg">
<path fill-rule="evenodd" clip-rule="evenodd" d="M14.5916 6.6606C14.0359 7.07027 13.9176 7.85283 14.3272 8.40849C15.5795 10.107 17.0046 12.2252 18.4758 14.514C15.4976 19.1811 12.757 23.9717 10.0189 28.7578C9.23672 30.1251 8.45471 31.4921 7.66743 32.8557C7.32225 33.4536 7.5271 34.2181 8.12496 34.5632C8.72283 34.9084 9.48732 34.7036 9.8325 34.1057C10.6298 32.7248 11.4184 31.3464 12.2044 29.9727L12.2049 29.9719C14.7485 25.5264 17.2644 21.1293 19.9562 16.8481C21.5076 19.3245 23.0631 21.896 24.479 24.2802C26.0875 26.9888 27.5083 29.4428 28.5269 31.2196C29.0361 32.1079 29.4447 32.8267 29.7258 33.3231C29.8663 33.5713 29.975 33.7639 30.0484 33.8943L30.1317 34.0423L30.1528 34.0798L30.158 34.0891L30.1593 34.0914L30.1596 34.0919C30.1596 34.092 30.1596 34.092 31.25 33.4808L30.1596 34.092C30.4972 34.6942 31.259 34.9087 31.8612 34.5712C32.4634 34.2336 32.6779 33.4718 32.3404 32.8696L31.25 33.4808C32.3404 32.8696 32.3403 32.8695 32.3402 32.8693L32.3398 32.8686L32.3384 32.8661L32.3329 32.8562L32.3112 32.8176L32.2266 32.6673C32.1523 32.5354 32.0427 32.3412 31.9012 32.0913C31.6182 31.5914 31.2074 30.8688 30.6958 29.9763C29.6726 28.1914 28.2452 25.7259 26.6286 23.0037C25.0236 20.3011 23.2247 17.3327 21.4454 14.5213C22.7957 12.4504 24.1969 10.4102 25.6728 8.40855C26.0824 7.85289 25.9641 7.07033 25.4085 6.66065C24.8528 6.25097 24.0702 6.3693 23.6606 6.92495C22.3793 8.66271 21.153 10.4295 19.9681 12.218C18.6885 10.2521 17.4512 8.43275 16.3395 6.92493C15.9298 6.36927 15.1472 6.25092 14.5916 6.6606ZM21.25 27.1668C21.25 26.4764 20.6903 25.9168 20 25.9168C19.3096 25.9168 18.75 26.4764 18.75 27.1668V34.6668C18.75 35.3571 19.3096 35.9168 20 35.9168C20.6903 35.9168 21.25 35.3571 21.25 34.6668V27.1668Z" fill="#654AEC"/>
<path d="M85.8984 31.2667C85.045 31.2667 84.1561 31.16 83.2317 30.9467C82.325 30.7156 81.6761 30.4489 81.285 30.1467L82.245 27.88C83.3117 28.6267 84.5295 29 85.8984 29C87.2673 29 87.9517 28.6 87.9517 27.8C87.9517 27.4444 87.8095 27.1689 87.525 26.9733C87.2406 26.7778 86.7339 26.5467 86.005 26.28L84.9917 25.9067C83.925 25.48 83.0806 24.9733 82.4584 24.3867C81.8361 23.7822 81.525 22.9911 81.525 22.0133C81.525 20.8933 81.9606 20.0222 82.8317 19.4C83.7206 18.76 84.9028 18.44 86.3784 18.44C87.1073 18.44 87.8184 18.52 88.5117 18.68C89.2228 18.84 89.765 19.0444 90.1384 19.2933L89.0984 21.5867C88.8673 21.3556 88.4939 21.16 87.9784 21C87.4806 20.8222 86.9206 20.7333 86.2984 20.7333C85.0361 20.7333 84.405 21.1156 84.405 21.88C84.405 22.3067 84.5739 22.6356 84.9117 22.8667C85.2495 23.08 85.8006 23.32 86.565 23.5867C86.6361 23.6044 86.9117 23.7022 87.3917 23.88C88.5295 24.3244 89.3739 24.8311 89.925 25.4C90.4761 25.9689 90.7517 26.6978 90.7517 27.5867C90.7517 28.7956 90.2895 29.7111 89.365 30.3333C88.4584 30.9556 87.3028 31.2667 85.8984 31.2667Z" fill="#1D2129"/>
<path d="M74.7107 18.76H77.6974V31H74.7107V18.76ZM76.1774 16.4667C75.6263 16.4667 75.164 16.28 74.7907 15.9067C74.4174 15.5333 74.2307 15.0711 74.2307 14.52C74.2307 14.0222 74.4174 13.5956 74.7907 13.24C75.164 12.8844 75.6263 12.7067 76.1774 12.7067C76.7107 12.7067 77.164 12.8844 77.5374 13.24C77.9107 13.5956 78.0974 14.0222 78.0974 14.52C78.0974 15.0711 77.9107 15.5333 77.5374 15.9067C77.1818 16.28 76.7285 16.4667 76.1774 16.4667Z" fill="#1D2129"/>
<path d="M58.2748 18.76H61.0481V21.0267C62.0259 19.3022 63.5548 18.44 65.6348 18.44C67.3592 18.44 68.7548 18.9911 69.8214 20.0933C70.8881 21.1778 71.4214 22.7511 71.4214 24.8133C71.4214 26.0933 71.1548 27.2222 70.6214 28.2C70.1059 29.1778 69.3948 29.9333 68.4881 30.4667C67.5992 31 66.6037 31.2667 65.5014 31.2667C64.4703 31.2667 63.5726 31.0889 62.8081 30.7333C62.0614 30.36 61.4748 29.8356 61.0481 29.16L61.0748 37.48H58.2748V18.76ZM64.8348 28.84C65.9903 28.84 66.8792 28.4756 67.5014 27.7467C68.1237 27 68.4348 26.0489 68.4348 24.8933C68.4348 23.6844 68.1237 22.7244 67.5014 22.0133C66.897 21.2844 66.0081 20.92 64.8348 20.92C64.1948 20.92 63.5903 21.08 63.0214 21.4C62.4703 21.7022 62.0259 22.1467 61.6881 22.7333C61.3681 23.3022 61.2081 23.9689 61.2081 24.7333V24.92C61.2081 25.6844 61.3681 26.3689 61.6881 26.9733C62.0259 27.56 62.4703 28.0222 63.0214 28.36C63.5726 28.68 64.177 28.84 64.8348 28.84Z" fill="#1D2129"/>
<path d="M51.2472 18.76H54.2339V31H51.2472V18.76ZM52.7139 16.4667C52.1628 16.4667 51.7005 16.28 51.3272 15.9067C50.9539 15.5333 50.7672 15.0711 50.7672 14.52C50.7672 14.0222 50.9539 13.5956 51.3272 13.24C51.7005 12.8844 52.1628 12.7067 52.7139 12.7067C53.2472 12.7067 53.7005 12.8844 54.0739 13.24C54.4472 13.5956 54.6339 14.0222 54.6339 14.52C54.6339 15.0711 54.4472 15.5333 54.0739 15.9067C53.7183 16.28 53.265 16.4667 52.7139 16.4667Z" fill="#1D2129"/>
<path d="M42.9599 21.1066H40.7999V18.76H42.9599V13.7733L45.8666 13.1333V18.76H48.6933V21.1066H45.8666V31H42.9599V21.1066Z" fill="#1D2129"/>
</svg>
