<svg width="12" height="12" viewBox="0 0 12 12" fill="none" xmlns="http://www.w3.org/2000/svg">
<path fill-rule="evenodd" clip-rule="evenodd" d="M6 0C9.31371 0 12 2.68629 12 6C12 9.31371 9.31371 12 6 12C2.68629 12 0 9.31371 0 6C0 2.68629 2.68629 0 6 0Z" fill="#1E6FFF"/>
<path fill-rule="evenodd" clip-rule="evenodd" d="M8.32009 4.1159C8.53223 4.29268 8.56089 4.60797 8.38411 4.8201L5.88411 7.8201C5.79418 7.92802 5.66299 7.99313 5.52266 7.9995C5.38232 8.00587 5.24578 7.9529 5.14645 7.85357L3.64645 6.35357C3.45118 6.1583 3.45118 5.84172 3.64645 5.64646C3.84171 5.4512 4.15829 5.4512 4.35355 5.64646L5.4664 6.75931L7.61589 4.17992C7.79267 3.96778 8.10795 3.93912 8.32009 4.1159Z" fill="white"/>
</svg>
